<?xml version="1.0" encoding="UTF-8"?>
<svg width="500" height="400" viewBox="0 0 500 400" fill="none" xmlns="http://www.w3.org/2000/svg">
  <!-- Background elements -->
  <rect x="50" y="50" width="400" height="300" rx="20" fill="#171717" fill-opacity="0.3"/>
  
  <!-- Benefit 1 -->
  <circle cx="120" cy="100" r="30" fill="#E6531D"/>
  <rect x="170" y="80" width="250" height="10" rx="5" fill="#FEF0D1" fill-opacity="0.7"/>
  <rect x="170" y="100" width="200" height="10" rx="5" fill="#FEF0D1" fill-opacity="0.5"/>
  <rect x="170" y="120" width="150" height="10" rx="5" fill="#FEF0D1" fill-opacity="0.3"/>
  
  <!-- Benefit 2 -->
  <circle cx="120" cy="200" r="30" fill="#007142"/>
  <rect x="170" y="180" width="250" height="10" rx="5" fill="#FEF0D1" fill-opacity="0.7"/>
  <rect x="170" y="200" width="200" height="10" rx="5" fill="#FEF0D1" fill-opacity="0.5"/>
  <rect x="170" y="220" width="150" height="10" rx="5" fill="#FEF0D1" fill-opacity="0.3"/>
  
  <!-- Benefit 3 -->
  <circle cx="120" cy="300" r="30" fill="#34307B"/>
  <rect x="170" y="280" width="250" height="10" rx="5" fill="#FEF0D1" fill-opacity="0.7"/>
  <rect x="170" y="300" width="200" height="10" rx="5" fill="#FEF0D1" fill-opacity="0.5"/>
  <rect x="170" y="320" width="150" height="10" rx="5" fill="#FEF0D1" fill-opacity="0.3"/>
  
  <!-- Decorative elements -->
  <circle cx="450" cy="70" r="15" fill="#E6531D" fill-opacity="0.3"/>
  <circle cx="50" cy="250" r="20" fill="#007142" fill-opacity="0.3"/>
  <circle cx="400" cy="350" r="25" fill="#34307B" fill-opacity="0.3"/>
</svg>
