<?xml version="1.0" encoding="utf-8" ?>
<svg baseProfile="full" height="1024" version="1.1" width="1536" xmlns="http://www.w3.org/2000/svg" xmlns:ev="http://www.w3.org/2001/xml-events" xmlns:xlink="http://www.w3.org/1999/xlink"><defs /><path d="M 575,832 L 574,833 L 570,833 L 569,834 L 568,833 L 565,833 L 564,834 L 558,834 L 557,835 L 556,834 L 554,836 L 553,836 L 552,835 L 551,836 L 547,836 L 546,837 L 543,837 L 542,838 L 539,838 L 538,839 L 537,839 L 536,840 L 533,840 L 532,841 L 530,841 L 529,842 L 527,842 L 526,843 L 525,843 L 524,844 L 522,844 L 521,845 L 520,845 L 519,846 L 517,846 L 515,848 L 513,848 L 512,849 L 511,849 L 510,850 L 509,850 L 508,851 L 507,851 L 505,853 L 503,853 L 502,854 L 501,854 L 498,857 L 496,857 L 495,858 L 494,858 L 492,860 L 491,860 L 488,863 L 487,863 L 486,864 L 485,864 L 482,867 L 481,867 L 478,870 L 477,870 L 474,873 L 473,873 L 468,878 L 467,878 L 461,884 L 460,884 L 455,889 L 455,890 L 454,891 L 453,891 L 451,893 L 451,894 L 449,896 L 448,896 L 441,903 L 441,904 L 440,905 L 439,905 L 425,919 L 425,920 L 424,921 L 423,921 L 423,922 L 422,923 L 421,923 L 420,924 L 420,925 L 416,929 L 416,930 L 414,932 L 413,932 L 413,933 L 412,934 L 411,934 L 376,969 L 375,969 L 365,979 L 364,979 L 359,984 L 358,984 L 357,985 L 357,986 L 356,987 L 355,987 L 353,989 L 352,989 L 349,992 L 348,992 L 348,993 L 347,994 L 346,994 L 344,996 L 343,996 L 340,999 L 339,999 L 337,1001 L 336,1001 L 334,1003 L 333,1003 L 330,1006 L 329,1006 L 329,1007 L 328,1008 L 327,1007 L 326,1008 L 325,1008 L 324,1009 L 323,1009 L 321,1011 L 320,1011 L 318,1013 L 317,1013 L 316,1014 L 314,1014 L 313,1015 L 312,1015 L 311,1016 L 310,1016 L 309,1017 L 308,1017 L 307,1018 L 305,1018 L 304,1019 L 303,1019 L 302,1020 L 301,1020 L 300,1021 L 298,1021 L 297,1022 L 295,1022 L 294,1023 L 293,1023 L 753,1023 L 752,1022 L 752,1015 L 751,1014 L 751,1008 L 750,1007 L 750,1002 L 749,1001 L 749,997 L 748,996 L 748,992 L 747,991 L 747,988 L 746,987 L 746,983 L 745,983 L 744,982 L 744,976 L 743,975 L 743,972 L 742,971 L 742,969 L 741,968 L 741,965 L 740,964 L 740,961 L 739,960 L 739,959 L 737,957 L 738,956 L 737,955 L 737,953 L 736,952 L 736,951 L 735,950 L 735,948 L 734,947 L 734,946 L 733,945 L 733,943 L 732,942 L 732,941 L 731,940 L 731,939 L 730,938 L 730,937 L 729,936 L 729,935 L 728,934 L 728,932 L 727,931 L 727,930 L 726,929 L 726,928 L 725,927 L 725,926 L 723,924 L 723,923 L 722,922 L 722,921 L 721,920 L 721,919 L 719,917 L 719,916 L 718,915 L 718,914 L 716,912 L 716,911 L 713,908 L 713,907 L 712,906 L 712,905 L 708,901 L 708,900 L 705,897 L 705,896 L 701,892 L 701,891 L 681,871 L 680,871 L 679,870 L 679,869 L 678,869 L 673,864 L 672,864 L 670,862 L 669,862 L 667,860 L 665,860 L 664,859 L 664,858 L 662,858 L 661,857 L 661,856 L 660,856 L 658,854 L 657,854 L 656,853 L 655,853 L 654,852 L 652,852 L 651,851 L 651,850 L 650,850 L 649,849 L 647,849 L 646,848 L 645,848 L 643,846 L 641,846 L 640,845 L 639,845 L 638,844 L 637,844 L 636,843 L 634,843 L 633,842 L 631,842 L 630,841 L 629,841 L 628,840 L 626,840 L 625,839 L 622,839 L 621,838 L 619,838 L 618,837 L 617,838 L 616,837 L 615,837 L 614,836 L 609,836 L 608,835 L 607,836 L 606,835 L 605,835 L 604,834 L 597,834 L 596,833 L 587,833 L 586,832 L 583,832 L 582,833 L 581,832 Z" fill="#4B33B6" stroke="none" /><path d="M 0,0 L 0,95 L 6,95 L 7,94 L 11,94 L 12,93 L 14,93 L 15,94 L 16,93 L 30,93 L 31,94 L 37,94 L 38,95 L 42,95 L 43,96 L 44,96 L 45,97 L 48,97 L 49,98 L 50,98 L 51,99 L 52,98 L 54,100 L 55,100 L 56,101 L 57,101 L 59,103 L 60,103 L 61,104 L 62,104 L 63,105 L 64,105 L 66,107 L 67,107 L 69,109 L 70,109 L 72,111 L 73,110 L 74,111 L 74,113 L 75,113 L 79,117 L 80,117 L 85,122 L 86,122 L 87,123 L 87,124 L 89,126 L 89,127 L 90,127 L 91,128 L 91,129 L 96,134 L 96,135 L 99,138 L 99,139 L 101,141 L 101,142 L 103,144 L 103,145 L 105,147 L 105,149 L 107,151 L 107,152 L 108,153 L 108,154 L 109,155 L 109,157 L 110,158 L 110,159 L 111,160 L 111,162 L 112,163 L 112,164 L 113,165 L 113,167 L 114,168 L 114,169 L 115,170 L 115,172 L 116,173 L 116,175 L 117,176 L 117,177 L 118,178 L 118,180 L 119,181 L 119,182 L 120,183 L 120,184 L 121,185 L 121,187 L 123,189 L 123,190 L 124,191 L 124,192 L 125,193 L 125,194 L 127,196 L 127,197 L 128,198 L 128,199 L 130,201 L 130,202 L 133,205 L 133,206 L 141,214 L 141,215 L 142,215 L 150,223 L 151,223 L 155,227 L 156,226 L 157,227 L 157,228 L 159,230 L 160,230 L 163,233 L 164,233 L 165,234 L 166,234 L 167,235 L 167,236 L 168,236 L 171,239 L 172,239 L 174,241 L 175,241 L 178,244 L 179,244 L 181,246 L 182,246 L 184,248 L 185,248 L 187,250 L 188,250 L 191,253 L 192,253 L 194,255 L 195,255 L 196,256 L 196,257 L 197,257 L 199,259 L 200,259 L 203,262 L 204,262 L 209,267 L 210,267 L 214,271 L 215,271 L 230,286 L 230,287 L 233,290 L 233,291 L 235,293 L 235,294 L 237,296 L 237,297 L 239,299 L 239,301 L 241,303 L 241,306 L 242,307 L 242,308 L 243,309 L 243,312 L 244,313 L 244,315 L 245,316 L 245,319 L 246,320 L 245,321 L 246,322 L 246,325 L 247,326 L 247,328 L 248,329 L 247,330 L 247,350 L 246,351 L 246,353 L 245,354 L 245,358 L 244,359 L 244,361 L 243,362 L 243,364 L 242,365 L 242,366 L 241,367 L 241,368 L 240,369 L 240,370 L 239,371 L 239,372 L 237,374 L 237,375 L 235,377 L 235,378 L 232,381 L 232,382 L 222,392 L 221,392 L 218,395 L 217,395 L 214,398 L 213,398 L 211,400 L 210,400 L 209,401 L 208,401 L 206,403 L 204,403 L 203,404 L 202,404 L 201,405 L 200,405 L 199,406 L 197,406 L 196,407 L 194,407 L 192,409 L 191,408 L 190,409 L 188,409 L 187,410 L 183,410 L 182,411 L 179,411 L 178,412 L 171,412 L 170,413 L 169,412 L 168,413 L 158,413 L 157,412 L 155,412 L 154,413 L 153,412 L 146,412 L 145,411 L 141,411 L 140,410 L 139,410 L 138,411 L 137,410 L 135,410 L 134,409 L 133,409 L 132,408 L 130,408 L 129,407 L 127,407 L 126,406 L 125,406 L 124,405 L 123,405 L 122,404 L 121,405 L 118,402 L 117,402 L 116,401 L 115,401 L 114,400 L 113,400 L 112,399 L 111,400 L 110,399 L 110,398 L 109,397 L 108,397 L 107,396 L 105,396 L 104,395 L 104,394 L 103,394 L 99,390 L 98,391 L 97,390 L 97,389 L 96,388 L 95,388 L 88,381 L 87,381 L 81,375 L 80,375 L 79,374 L 79,373 L 78,372 L 77,372 L 76,371 L 76,370 L 73,367 L 72,367 L 71,366 L 71,365 L 64,358 L 64,357 L 56,349 L 55,349 L 54,348 L 54,347 L 51,344 L 50,344 L 49,343 L 49,342 L 35,328 L 34,328 L 31,325 L 30,325 L 26,321 L 25,321 L 24,320 L 23,320 L 20,317 L 19,317 L 17,315 L 16,315 L 15,314 L 14,314 L 12,312 L 10,312 L 8,310 L 7,310 L 6,309 L 5,309 L 4,308 L 2,308 L 1,307 L 0,307 L 0,446 L 2,446 L 3,445 L 4,445 L 5,444 L 6,445 L 7,444 L 8,445 L 9,444 L 16,444 L 17,443 L 18,444 L 19,443 L 20,444 L 30,444 L 31,445 L 40,445 L 41,446 L 43,446 L 44,447 L 50,447 L 51,448 L 53,448 L 54,449 L 58,449 L 59,450 L 61,450 L 62,451 L 65,451 L 66,452 L 67,452 L 68,453 L 70,453 L 71,454 L 73,454 L 74,455 L 76,455 L 77,456 L 78,456 L 79,457 L 81,457 L 82,458 L 83,458 L 84,459 L 86,459 L 87,460 L 89,460 L 90,461 L 92,461 L 94,463 L 96,463 L 98,465 L 100,465 L 101,466 L 102,466 L 103,467 L 104,467 L 105,468 L 106,468 L 107,469 L 109,469 L 110,470 L 112,470 L 114,472 L 116,472 L 117,473 L 119,473 L 120,474 L 121,474 L 122,475 L 124,475 L 126,477 L 127,477 L 128,478 L 129,478 L 130,479 L 134,479 L 136,481 L 138,481 L 139,482 L 140,482 L 141,483 L 144,483 L 145,484 L 146,484 L 147,485 L 150,485 L 151,486 L 153,486 L 154,487 L 157,487 L 158,488 L 160,488 L 161,489 L 165,489 L 166,490 L 171,490 L 172,491 L 177,491 L 178,492 L 179,491 L 180,492 L 187,492 L 188,493 L 198,493 L 199,492 L 201,492 L 202,493 L 204,493 L 205,492 L 206,493 L 207,492 L 213,492 L 214,491 L 222,491 L 223,490 L 224,491 L 225,490 L 229,490 L 230,489 L 234,489 L 235,488 L 238,488 L 239,487 L 242,487 L 243,486 L 244,486 L 245,485 L 248,485 L 249,484 L 250,484 L 251,483 L 254,483 L 255,482 L 257,482 L 258,481 L 260,481 L 260,480 L 261,479 L 265,479 L 267,477 L 269,477 L 270,476 L 271,476 L 273,474 L 275,474 L 276,473 L 277,473 L 279,471 L 280,471 L 281,470 L 282,470 L 283,469 L 284,469 L 286,467 L 287,467 L 288,466 L 289,466 L 291,464 L 292,464 L 294,462 L 295,462 L 298,459 L 299,459 L 302,456 L 303,456 L 305,454 L 305,453 L 306,452 L 308,452 L 327,433 L 327,432 L 328,431 L 329,431 L 330,430 L 330,429 L 333,426 L 333,425 L 337,421 L 337,420 L 340,417 L 340,416 L 342,414 L 342,413 L 344,411 L 344,410 L 346,408 L 346,407 L 348,405 L 348,404 L 349,403 L 349,402 L 351,400 L 351,399 L 352,398 L 352,397 L 354,395 L 354,394 L 355,393 L 355,392 L 356,391 L 356,389 L 358,387 L 358,385 L 360,383 L 360,381 L 361,380 L 361,379 L 362,378 L 362,376 L 363,375 L 363,374 L 364,373 L 364,371 L 365,370 L 365,369 L 366,368 L 366,365 L 367,364 L 367,362 L 368,361 L 368,359 L 369,358 L 369,355 L 370,354 L 370,349 L 371,348 L 371,346 L 372,345 L 371,344 L 372,343 L 372,338 L 373,337 L 373,327 L 374,326 L 374,324 L 373,323 L 374,322 L 374,319 L 373,318 L 373,317 L 374,316 L 374,314 L 373,313 L 373,302 L 372,301 L 372,293 L 371,292 L 371,288 L 370,287 L 370,283 L 368,281 L 368,276 L 367,275 L 367,274 L 366,273 L 366,270 L 365,269 L 365,267 L 364,266 L 364,264 L 363,263 L 363,262 L 362,261 L 362,260 L 360,258 L 360,255 L 358,253 L 358,251 L 356,249 L 356,248 L 355,247 L 355,246 L 353,244 L 353,243 L 352,242 L 352,241 L 350,239 L 350,238 L 347,235 L 347,234 L 343,230 L 343,229 L 337,223 L 337,222 L 336,221 L 335,221 L 327,213 L 326,213 L 321,208 L 320,208 L 317,205 L 316,205 L 314,203 L 313,203 L 310,200 L 309,200 L 308,199 L 307,199 L 306,198 L 305,198 L 303,196 L 302,196 L 301,195 L 300,195 L 299,194 L 297,194 L 295,192 L 293,192 L 291,190 L 289,190 L 288,189 L 286,189 L 284,187 L 282,187 L 281,186 L 278,186 L 276,184 L 274,184 L 273,183 L 271,183 L 270,182 L 268,182 L 267,181 L 265,181 L 264,180 L 262,180 L 261,179 L 260,179 L 259,178 L 257,178 L 256,177 L 255,177 L 254,176 L 252,176 L 251,175 L 249,175 L 248,174 L 247,174 L 246,173 L 245,173 L 244,172 L 242,172 L 241,171 L 240,171 L 239,170 L 238,170 L 236,168 L 235,168 L 234,167 L 233,167 L 232,166 L 231,166 L 229,164 L 228,164 L 227,163 L 226,163 L 224,161 L 223,161 L 222,160 L 221,160 L 216,155 L 215,155 L 202,142 L 202,141 L 200,139 L 200,138 L 198,136 L 198,135 L 196,133 L 196,132 L 193,129 L 193,127 L 191,125 L 191,123 L 190,122 L 190,121 L 189,120 L 189,119 L 188,118 L 188,116 L 187,115 L 187,114 L 186,113 L 186,111 L 185,111 L 184,110 L 184,104 L 183,103 L 183,101 L 182,100 L 182,97 L 181,96 L 181,93 L 180,92 L 180,89 L 179,88 L 179,85 L 178,84 L 178,79 L 176,77 L 176,71 L 175,70 L 175,67 L 174,66 L 174,61 L 173,60 L 173,58 L 172,57 L 172,53 L 171,52 L 171,50 L 170,49 L 170,48 L 169,47 L 169,46 L 170,45 L 169,44 L 169,42 L 168,41 L 168,37 L 166,35 L 167,34 L 166,33 L 166,29 L 165,28 L 165,26 L 164,25 L 164,22 L 163,21 L 163,19 L 162,18 L 162,15 L 161,14 L 161,13 L 160,12 L 160,10 L 159,9 L 159,6 L 158,5 L 158,3 L 157,2 L 157,1 L 156,0 Z" fill="#4B33B6" stroke="none" /><path d="M 163,631 L 162,632 L 142,632 L 141,633 L 134,633 L 133,634 L 127,634 L 126,635 L 122,635 L 121,636 L 117,636 L 116,637 L 113,637 L 112,638 L 108,638 L 107,639 L 105,639 L 104,640 L 100,640 L 99,641 L 98,641 L 97,642 L 94,642 L 93,643 L 91,643 L 90,644 L 88,644 L 87,645 L 86,645 L 85,646 L 82,646 L 81,647 L 80,647 L 79,648 L 77,648 L 76,649 L 75,649 L 74,650 L 73,650 L 72,651 L 70,651 L 69,652 L 68,652 L 67,653 L 66,653 L 65,654 L 64,654 L 63,655 L 62,655 L 61,656 L 59,656 L 58,657 L 57,657 L 56,658 L 55,658 L 53,660 L 52,660 L 51,661 L 50,661 L 49,662 L 48,662 L 47,663 L 46,663 L 45,664 L 44,664 L 42,666 L 41,666 L 40,667 L 39,667 L 37,669 L 36,669 L 35,670 L 34,670 L 32,672 L 31,672 L 29,674 L 28,674 L 26,676 L 25,676 L 23,678 L 22,678 L 19,681 L 18,681 L 15,684 L 14,684 L 10,688 L 9,688 L 9,689 L 8,690 L 7,690 L 5,692 L 4,692 L 0,696 L 0,1023 L 196,1023 L 195,1022 L 195,1021 L 193,1019 L 193,1018 L 192,1017 L 192,1016 L 190,1014 L 190,1013 L 189,1012 L 189,1011 L 188,1010 L 188,1008 L 187,1007 L 187,1006 L 186,1005 L 186,1003 L 184,1001 L 184,995 L 183,994 L 183,991 L 182,990 L 182,981 L 181,980 L 181,963 L 182,962 L 182,955 L 183,954 L 183,951 L 184,950 L 184,945 L 185,944 L 185,943 L 186,942 L 186,940 L 187,939 L 187,937 L 188,936 L 188,934 L 189,933 L 189,932 L 190,931 L 190,930 L 191,929 L 191,928 L 192,927 L 192,926 L 193,925 L 193,924 L 194,923 L 194,922 L 195,921 L 195,920 L 196,919 L 196,918 L 198,916 L 198,915 L 200,913 L 200,912 L 202,910 L 202,909 L 205,906 L 205,905 L 210,900 L 210,899 L 216,893 L 216,892 L 217,891 L 218,891 L 228,881 L 229,881 L 234,876 L 235,876 L 238,873 L 239,873 L 243,869 L 244,869 L 246,867 L 247,867 L 251,863 L 252,863 L 253,862 L 254,862 L 256,860 L 257,860 L 259,858 L 260,858 L 262,856 L 263,856 L 264,855 L 265,855 L 267,853 L 268,853 L 270,851 L 271,851 L 273,849 L 274,849 L 276,847 L 277,847 L 281,843 L 282,843 L 286,839 L 287,839 L 296,830 L 296,829 L 300,825 L 300,824 L 303,821 L 303,820 L 304,819 L 304,818 L 306,816 L 306,815 L 307,814 L 307,813 L 308,812 L 308,811 L 309,810 L 309,809 L 310,808 L 310,807 L 311,806 L 311,805 L 312,804 L 312,801 L 314,799 L 314,796 L 315,795 L 315,793 L 316,792 L 316,789 L 317,788 L 317,784 L 318,783 L 318,774 L 319,773 L 319,757 L 318,756 L 318,747 L 317,746 L 317,741 L 316,740 L 316,736 L 315,735 L 315,733 L 314,732 L 314,729 L 313,728 L 313,726 L 312,725 L 312,723 L 311,722 L 311,721 L 310,720 L 310,718 L 309,717 L 309,716 L 308,715 L 308,713 L 306,711 L 306,710 L 305,709 L 305,708 L 304,707 L 304,706 L 303,705 L 303,704 L 302,703 L 302,702 L 300,700 L 300,699 L 298,697 L 298,696 L 296,694 L 296,693 L 294,691 L 294,690 L 291,687 L 291,686 L 287,682 L 287,681 L 275,669 L 274,669 L 269,664 L 268,664 L 265,661 L 264,661 L 262,659 L 261,659 L 258,656 L 257,656 L 256,655 L 255,655 L 254,654 L 253,654 L 251,652 L 250,652 L 249,651 L 248,651 L 247,650 L 246,650 L 245,649 L 244,649 L 243,648 L 242,648 L 241,647 L 240,647 L 239,646 L 237,646 L 236,645 L 235,645 L 234,644 L 232,644 L 231,643 L 230,643 L 229,642 L 227,642 L 226,641 L 224,641 L 223,640 L 219,640 L 218,639 L 217,639 L 216,638 L 213,638 L 212,637 L 210,637 L 209,636 L 204,636 L 203,635 L 200,635 L 199,634 L 193,634 L 192,633 L 185,633 L 184,632 L 168,632 L 167,631 L 166,632 L 165,631 Z" fill="#F06C00" stroke="none" /><path d="M 1464,532 L 1463,533 L 1454,533 L 1453,534 L 1447,534 L 1446,535 L 1442,535 L 1441,536 L 1438,536 L 1437,537 L 1435,537 L 1434,538 L 1431,538 L 1430,539 L 1429,539 L 1428,540 L 1426,540 L 1425,541 L 1424,541 L 1423,542 L 1421,542 L 1419,544 L 1417,544 L 1416,545 L 1415,545 L 1414,546 L 1413,546 L 1412,547 L 1411,547 L 1410,548 L 1409,548 L 1408,549 L 1407,549 L 1406,550 L 1405,550 L 1403,552 L 1402,552 L 1400,554 L 1399,554 L 1397,556 L 1396,556 L 1393,559 L 1392,559 L 1388,563 L 1387,563 L 1377,573 L 1377,574 L 1373,578 L 1373,579 L 1370,582 L 1370,583 L 1369,584 L 1369,585 L 1366,588 L 1366,589 L 1365,590 L 1365,591 L 1364,592 L 1364,593 L 1363,594 L 1363,595 L 1361,597 L 1361,598 L 1360,599 L 1360,600 L 1359,601 L 1359,603 L 1358,604 L 1358,605 L 1357,606 L 1357,607 L 1356,608 L 1356,609 L 1355,610 L 1355,612 L 1354,613 L 1354,614 L 1353,615 L 1353,618 L 1352,619 L 1352,620 L 1351,621 L 1351,624 L 1350,625 L 1350,628 L 1349,629 L 1349,633 L 1348,634 L 1348,640 L 1347,641 L 1347,665 L 1348,666 L 1348,672 L 1349,673 L 1349,678 L 1350,679 L 1350,682 L 1351,683 L 1351,686 L 1352,687 L 1352,688 L 1353,689 L 1353,692 L 1354,693 L 1354,695 L 1355,696 L 1355,697 L 1356,698 L 1356,700 L 1357,701 L 1357,702 L 1358,703 L 1358,704 L 1359,705 L 1359,706 L 1360,707 L 1360,708 L 1361,709 L 1361,710 L 1362,711 L 1362,712 L 1363,713 L 1363,714 L 1365,716 L 1365,717 L 1366,718 L 1366,719 L 1369,722 L 1369,724 L 1371,726 L 1371,727 L 1374,730 L 1374,731 L 1376,733 L 1376,734 L 1379,737 L 1379,738 L 1381,740 L 1381,741 L 1384,744 L 1384,745 L 1387,748 L 1387,749 L 1389,751 L 1389,752 L 1392,755 L 1392,756 L 1395,759 L 1395,760 L 1397,762 L 1397,763 L 1400,766 L 1400,767 L 1403,770 L 1403,771 L 1405,773 L 1405,774 L 1407,776 L 1407,777 L 1409,779 L 1409,780 L 1411,782 L 1411,783 L 1413,785 L 1413,786 L 1415,788 L 1415,789 L 1417,791 L 1417,792 L 1418,793 L 1418,794 L 1420,796 L 1420,797 L 1421,798 L 1421,799 L 1422,800 L 1422,801 L 1423,802 L 1423,803 L 1424,804 L 1424,805 L 1425,806 L 1425,807 L 1426,808 L 1426,809 L 1427,810 L 1427,812 L 1428,813 L 1428,814 L 1429,815 L 1429,817 L 1430,818 L 1430,821 L 1431,822 L 1431,826 L 1432,827 L 1432,835 L 1433,836 L 1433,838 L 1432,839 L 1432,847 L 1431,848 L 1431,854 L 1430,855 L 1430,859 L 1429,860 L 1429,863 L 1428,864 L 1428,866 L 1427,867 L 1427,869 L 1425,871 L 1425,873 L 1423,875 L 1423,876 L 1421,878 L 1421,879 L 1417,883 L 1417,884 L 1413,888 L 1412,888 L 1409,891 L 1408,891 L 1406,893 L 1405,893 L 1404,894 L 1403,894 L 1401,896 L 1399,896 L 1398,897 L 1397,897 L 1396,898 L 1393,898 L 1393,899 L 1394,899 L 1396,901 L 1397,901 L 1399,903 L 1400,903 L 1403,906 L 1404,906 L 1406,908 L 1407,908 L 1410,911 L 1411,911 L 1413,913 L 1414,913 L 1415,914 L 1416,914 L 1417,915 L 1417,916 L 1418,916 L 1421,919 L 1422,919 L 1427,924 L 1428,924 L 1431,927 L 1432,927 L 1433,928 L 1433,929 L 1434,929 L 1439,934 L 1440,934 L 1449,943 L 1450,943 L 1451,944 L 1451,945 L 1467,961 L 1467,962 L 1473,968 L 1473,969 L 1477,973 L 1477,974 L 1481,978 L 1481,979 L 1483,981 L 1483,982 L 1486,985 L 1486,986 L 1489,989 L 1489,990 L 1491,992 L 1491,993 L 1493,995 L 1493,996 L 1495,998 L 1495,999 L 1497,1001 L 1497,1003 L 1499,1005 L 1499,1006 L 1501,1008 L 1501,1009 L 1502,1010 L 1502,1011 L 1503,1012 L 1503,1013 L 1504,1014 L 1504,1015 L 1505,1016 L 1505,1017 L 1507,1019 L 1507,1021 L 1509,1023 L 1535,1023 L 1535,541 L 1534,540 L 1532,540 L 1531,539 L 1529,539 L 1528,538 L 1525,538 L 1524,537 L 1522,537 L 1521,536 L 1517,536 L 1516,535 L 1513,535 L 1512,534 L 1505,534 L 1504,533 L 1497,533 L 1496,532 Z" fill="#F06C00" stroke="none" /><path d="M 1041,720 L 1040,721 L 1034,721 L 1033,722 L 1028,722 L 1027,723 L 1024,723 L 1023,724 L 1020,724 L 1019,725 L 1016,725 L 1015,726 L 1013,726 L 1012,727 L 1010,727 L 1009,728 L 1007,728 L 1006,729 L 1005,729 L 1004,730 L 1002,730 L 1001,731 L 1000,731 L 999,732 L 998,732 L 997,733 L 996,733 L 995,734 L 993,734 L 991,736 L 990,736 L 989,737 L 988,737 L 987,738 L 986,738 L 984,740 L 983,740 L 981,742 L 980,742 L 978,744 L 977,744 L 973,748 L 972,748 L 961,759 L 961,760 L 957,764 L 957,765 L 954,768 L 954,769 L 952,771 L 952,772 L 950,774 L 950,775 L 949,776 L 949,777 L 948,778 L 948,779 L 947,780 L 947,781 L 946,782 L 946,783 L 945,784 L 945,785 L 944,786 L 944,787 L 943,788 L 943,789 L 942,790 L 942,791 L 941,792 L 941,794 L 940,795 L 940,796 L 939,797 L 939,800 L 938,801 L 938,803 L 937,804 L 937,808 L 936,809 L 936,811 L 935,812 L 935,818 L 934,819 L 934,841 L 935,842 L 935,848 L 936,849 L 936,853 L 937,854 L 937,858 L 938,859 L 938,861 L 939,862 L 939,864 L 940,865 L 940,867 L 941,868 L 941,870 L 942,871 L 942,872 L 943,873 L 943,875 L 944,876 L 944,877 L 945,878 L 945,879 L 946,880 L 946,881 L 947,882 L 947,883 L 949,885 L 949,886 L 950,887 L 950,888 L 952,890 L 952,891 L 953,892 L 953,893 L 956,896 L 956,897 L 958,899 L 958,900 L 962,904 L 962,905 L 967,910 L 967,911 L 968,911 L 969,912 L 969,913 L 976,920 L 977,920 L 983,926 L 984,926 L 988,930 L 989,930 L 992,933 L 993,933 L 996,936 L 997,936 L 1000,939 L 1001,939 L 1003,941 L 1004,941 L 1007,944 L 1008,944 L 1011,947 L 1012,947 L 1015,950 L 1016,950 L 1019,953 L 1020,953 L 1023,956 L 1024,956 L 1028,960 L 1029,960 L 1036,967 L 1037,967 L 1044,974 L 1044,975 L 1045,975 L 1046,976 L 1046,977 L 1053,984 L 1053,985 L 1056,988 L 1056,989 L 1059,992 L 1059,993 L 1060,994 L 1060,995 L 1062,997 L 1062,998 L 1064,1000 L 1064,1001 L 1065,1002 L 1065,1003 L 1066,1004 L 1066,1005 L 1068,1007 L 1068,1008 L 1069,1009 L 1069,1010 L 1070,1011 L 1070,1012 L 1071,1013 L 1071,1014 L 1072,1015 L 1072,1016 L 1073,1017 L 1073,1019 L 1074,1020 L 1074,1021 L 1075,1022 L 1075,1023 L 1507,1023 L 1506,1022 L 1506,1020 L 1504,1018 L 1504,1016 L 1502,1014 L 1502,1013 L 1501,1012 L 1501,1011 L 1500,1010 L 1500,1009 L 1498,1007 L 1498,1006 L 1497,1005 L 1497,1004 L 1496,1003 L 1496,1002 L 1494,1000 L 1494,999 L 1492,997 L 1492,996 L 1490,994 L 1490,992 L 1489,992 L 1488,991 L 1488,990 L 1486,988 L 1486,987 L 1484,985 L 1484,984 L 1480,980 L 1480,978 L 1479,978 L 1478,977 L 1478,976 L 1477,976 L 1476,975 L 1476,974 L 1474,972 L 1474,971 L 1468,965 L 1468,964 L 1460,956 L 1460,955 L 1459,955 L 1458,954 L 1458,953 L 1448,943 L 1447,943 L 1438,934 L 1437,934 L 1436,933 L 1436,932 L 1435,932 L 1432,929 L 1432,928 L 1430,928 L 1424,922 L 1423,922 L 1419,918 L 1418,918 L 1416,916 L 1415,916 L 1411,912 L 1410,912 L 1408,910 L 1407,910 L 1405,908 L 1404,908 L 1402,906 L 1401,906 L 1400,905 L 1400,904 L 1398,904 L 1395,901 L 1394,901 L 1392,899 L 1389,899 L 1388,900 L 1383,900 L 1382,901 L 1368,901 L 1367,900 L 1360,900 L 1359,899 L 1355,899 L 1354,898 L 1351,898 L 1350,897 L 1348,897 L 1347,896 L 1344,896 L 1343,895 L 1341,895 L 1340,894 L 1339,894 L 1338,893 L 1337,893 L 1336,892 L 1334,892 L 1333,891 L 1332,891 L 1331,890 L 1330,890 L 1329,889 L 1328,889 L 1326,887 L 1325,887 L 1324,886 L 1323,886 L 1322,885 L 1321,885 L 1319,883 L 1318,883 L 1317,882 L 1316,882 L 1314,880 L 1313,880 L 1311,878 L 1310,878 L 1308,876 L 1307,876 L 1304,873 L 1303,873 L 1301,871 L 1300,871 L 1297,868 L 1296,868 L 1294,866 L 1293,866 L 1289,862 L 1288,862 L 1285,859 L 1284,859 L 1280,855 L 1279,855 L 1274,850 L 1273,850 L 1269,846 L 1268,846 L 1262,840 L 1261,840 L 1253,832 L 1252,832 L 1238,818 L 1237,818 L 1224,805 L 1223,805 L 1208,790 L 1207,790 L 1201,784 L 1200,784 L 1194,778 L 1193,778 L 1189,774 L 1188,774 L 1185,771 L 1184,771 L 1181,768 L 1180,768 L 1177,765 L 1176,765 L 1173,762 L 1172,762 L 1170,760 L 1169,760 L 1167,758 L 1166,758 L 1164,756 L 1163,756 L 1162,755 L 1161,755 L 1159,753 L 1158,753 L 1157,752 L 1156,752 L 1154,750 L 1153,750 L 1152,749 L 1151,749 L 1149,747 L 1148,747 L 1147,746 L 1146,746 L 1145,745 L 1144,745 L 1143,744 L 1142,744 L 1141,743 L 1140,743 L 1139,742 L 1138,742 L 1137,741 L 1136,741 L 1135,740 L 1134,740 L 1133,739 L 1132,739 L 1131,738 L 1130,738 L 1129,737 L 1127,737 L 1126,736 L 1125,736 L 1124,735 L 1122,735 L 1121,734 L 1120,734 L 1119,733 L 1117,733 L 1116,732 L 1114,732 L 1113,731 L 1112,731 L 1111,730 L 1108,730 L 1107,729 L 1105,729 L 1104,728 L 1102,728 L 1101,727 L 1098,727 L 1097,726 L 1094,726 L 1093,725 L 1090,725 L 1089,724 L 1085,724 L 1084,723 L 1080,723 L 1079,722 L 1073,722 L 1072,721 L 1064,721 L 1063,720 Z" fill="#017A4E" stroke="none" /><path d="M 723,0 L 723,1 L 724,2 L 724,12 L 725,13 L 725,18 L 726,19 L 726,23 L 727,24 L 727,27 L 728,28 L 728,31 L 729,32 L 729,34 L 730,35 L 730,36 L 731,37 L 731,39 L 732,40 L 732,41 L 733,42 L 733,44 L 734,45 L 734,46 L 735,47 L 735,48 L 736,49 L 736,50 L 737,51 L 737,52 L 738,53 L 738,54 L 740,56 L 740,57 L 741,58 L 741,59 L 743,61 L 743,62 L 745,64 L 745,65 L 748,68 L 748,69 L 752,73 L 752,74 L 768,90 L 769,90 L 774,95 L 775,95 L 778,98 L 779,98 L 782,101 L 783,101 L 784,102 L 785,102 L 787,104 L 788,104 L 789,105 L 790,105 L 792,107 L 793,107 L 794,108 L 795,108 L 796,109 L 797,109 L 799,111 L 801,111 L 802,112 L 803,112 L 804,113 L 805,113 L 806,114 L 807,114 L 808,115 L 810,115 L 811,116 L 812,116 L 813,117 L 815,117 L 816,118 L 818,118 L 819,119 L 821,119 L 822,120 L 824,120 L 825,121 L 828,121 L 829,122 L 832,122 L 833,123 L 838,123 L 839,124 L 843,124 L 844,125 L 853,125 L 854,126 L 880,126 L 881,125 L 889,125 L 890,124 L 894,124 L 895,123 L 900,123 L 901,122 L 905,122 L 906,121 L 909,121 L 910,120 L 913,120 L 914,119 L 917,119 L 918,118 L 920,118 L 921,117 L 923,117 L 924,116 L 926,116 L 927,115 L 930,115 L 931,114 L 932,114 L 933,113 L 935,113 L 936,112 L 938,112 L 939,111 L 941,111 L 942,110 L 944,110 L 945,109 L 946,109 L 947,108 L 949,108 L 950,107 L 951,107 L 952,106 L 954,106 L 955,105 L 956,105 L 957,104 L 958,104 L 959,103 L 961,103 L 963,101 L 965,101 L 966,100 L 967,100 L 968,99 L 969,99 L 970,98 L 971,98 L 972,97 L 973,97 L 974,96 L 975,96 L 976,95 L 978,95 L 980,93 L 981,93 L 982,92 L 983,92 L 984,91 L 985,91 L 986,90 L 987,90 L 988,89 L 989,89 L 990,88 L 991,88 L 992,87 L 993,87 L 994,86 L 995,86 L 996,85 L 997,85 L 999,83 L 1000,83 L 1001,82 L 1002,82 L 1003,81 L 1004,81 L 1006,79 L 1008,79 L 1010,77 L 1011,77 L 1012,76 L 1013,76 L 1014,75 L 1015,75 L 1017,73 L 1018,73 L 1019,72 L 1020,72 L 1022,70 L 1023,70 L 1024,69 L 1025,69 L 1026,68 L 1027,68 L 1029,66 L 1030,66 L 1031,65 L 1032,65 L 1034,63 L 1035,63 L 1036,62 L 1037,62 L 1038,61 L 1039,61 L 1040,60 L 1041,60 L 1042,59 L 1043,59 L 1044,58 L 1045,58 L 1046,57 L 1047,57 L 1048,56 L 1049,56 L 1050,55 L 1051,55 L 1052,54 L 1053,54 L 1054,53 L 1055,53 L 1056,52 L 1057,52 L 1058,51 L 1060,51 L 1061,50 L 1062,50 L 1063,49 L 1065,49 L 1066,48 L 1067,48 L 1068,47 L 1071,47 L 1072,46 L 1073,46 L 1074,45 L 1077,45 L 1078,44 L 1080,44 L 1081,43 L 1084,43 L 1085,42 L 1088,42 L 1089,41 L 1093,41 L 1094,40 L 1099,40 L 1100,39 L 1124,39 L 1125,40 L 1130,40 L 1131,41 L 1135,41 L 1136,42 L 1138,42 L 1139,43 L 1141,43 L 1142,44 L 1144,44 L 1145,45 L 1147,45 L 1148,46 L 1149,46 L 1150,47 L 1151,47 L 1152,48 L 1153,48 L 1154,49 L 1155,49 L 1156,50 L 1157,50 L 1158,51 L 1159,51 L 1161,53 L 1162,53 L 1163,54 L 1164,54 L 1166,56 L 1167,56 L 1170,59 L 1171,59 L 1175,63 L 1176,63 L 1177,64 L 1177,65 L 1178,65 L 1185,72 L 1185,73 L 1189,77 L 1189,78 L 1192,81 L 1192,82 L 1193,83 L 1193,84 L 1195,86 L 1195,87 L 1197,89 L 1197,90 L 1198,91 L 1198,92 L 1199,93 L 1199,95 L 1200,96 L 1200,97 L 1201,98 L 1201,100 L 1202,101 L 1202,103 L 1203,104 L 1203,107 L 1204,108 L 1204,113 L 1205,114 L 1205,134 L 1204,135 L 1204,139 L 1203,140 L 1203,143 L 1202,144 L 1202,146 L 1201,147 L 1201,149 L 1200,150 L 1200,151 L 1199,152 L 1199,154 L 1198,155 L 1198,156 L 1197,157 L 1197,158 L 1196,159 L 1196,160 L 1195,161 L 1195,162 L 1193,164 L 1193,165 L 1192,166 L 1192,167 L 1191,168 L 1191,169 L 1189,171 L 1189,172 L 1187,174 L 1187,175 L 1186,176 L 1186,177 L 1184,179 L 1184,180 L 1182,182 L 1182,183 L 1181,184 L 1181,185 L 1179,187 L 1179,188 L 1178,189 L 1178,190 L 1177,191 L 1177,192 L 1176,193 L 1176,194 L 1175,195 L 1175,196 L 1174,197 L 1174,199 L 1173,200 L 1173,202 L 1172,203 L 1172,206 L 1171,207 L 1171,210 L 1170,211 L 1170,217 L 1169,218 L 1169,235 L 1170,236 L 1170,241 L 1171,242 L 1171,246 L 1172,247 L 1172,249 L 1173,250 L 1173,252 L 1174,253 L 1174,254 L 1175,255 L 1175,257 L 1177,259 L 1177,261 L 1178,262 L 1178,263 L 1179,264 L 1179,265 L 1181,267 L 1181,268 L 1183,270 L 1183,271 L 1186,274 L 1186,275 L 1191,280 L 1191,281 L 1195,285 L 1196,285 L 1201,290 L 1202,290 L 1205,293 L 1206,293 L 1208,295 L 1209,295 L 1211,297 L 1212,297 L 1213,298 L 1214,298 L 1215,299 L 1216,299 L 1218,301 L 1220,301 L 1221,302 L 1222,302 L 1223,303 L 1224,303 L 1225,304 L 1226,304 L 1227,305 L 1229,305 L 1230,306 L 1231,306 L 1232,307 L 1234,307 L 1235,308 L 1237,308 L 1238,309 L 1240,309 L 1241,310 L 1243,310 L 1244,311 L 1247,311 L 1248,312 L 1251,312 L 1252,313 L 1255,313 L 1256,314 L 1261,314 L 1262,315 L 1268,315 L 1269,316 L 1280,316 L 1281,317 L 1294,317 L 1295,316 L 1305,316 L 1306,315 L 1312,315 L 1313,314 L 1317,314 L 1318,313 L 1322,313 L 1323,312 L 1325,312 L 1326,311 L 1329,311 L 1330,310 L 1332,310 L 1333,309 L 1335,309 L 1336,308 L 1338,308 L 1339,307 L 1341,307 L 1342,306 L 1343,306 L 1344,305 L 1346,305 L 1347,304 L 1348,304 L 1349,303 L 1350,303 L 1351,302 L 1352,302 L 1353,301 L 1354,301 L 1355,300 L 1356,300 L 1357,299 L 1358,299 L 1359,298 L 1360,298 L 1362,296 L 1363,296 L 1364,295 L 1365,295 L 1367,293 L 1368,293 L 1370,291 L 1371,291 L 1373,289 L 1374,289 L 1376,287 L 1377,287 L 1381,283 L 1382,283 L 1388,277 L 1389,277 L 1400,266 L 1400,265 L 1408,257 L 1408,256 L 1413,251 L 1413,250 L 1418,245 L 1418,244 L 1421,241 L 1421,240 L 1424,237 L 1424,236 L 1427,233 L 1427,232 L 1430,229 L 1430,228 L 1432,226 L 1432,225 L 1435,222 L 1435,221 L 1438,218 L 1438,217 L 1440,215 L 1440,214 L 1442,212 L 1442,211 L 1444,209 L 1444,208 L 1446,206 L 1446,205 L 1448,203 L 1448,202 L 1450,200 L 1450,199 L 1452,197 L 1452,196 L 1454,194 L 1454,193 L 1455,192 L 1455,191 L 1457,189 L 1457,188 L 1458,187 L 1458,186 L 1460,184 L 1460,183 L 1462,181 L 1462,180 L 1463,179 L 1463,178 L 1464,177 L 1464,176 L 1466,174 L 1466,173 L 1467,172 L 1467,171 L 1469,169 L 1469,168 L 1470,167 L 1470,166 L 1471,165 L 1471,164 L 1472,163 L 1472,162 L 1473,161 L 1473,160 L 1475,158 L 1475,157 L 1476,156 L 1476,155 L 1477,154 L 1477,153 L 1478,152 L 1478,151 L 1480,149 L 1480,147 L 1482,145 L 1482,144 L 1483,143 L 1483,142 L 1484,141 L 1484,140 L 1485,139 L 1485,138 L 1487,136 L 1487,135 L 1488,134 L 1488,133 L 1489,132 L 1489,131 L 1491,129 L 1491,128 L 1492,127 L 1492,126 L 1494,124 L 1494,123 L 1495,122 L 1495,121 L 1496,120 L 1496,119 L 1498,117 L 1498,116 L 1500,114 L 1500,113 L 1501,112 L 1501,111 L 1503,109 L 1503,108 L 1505,106 L 1505,105 L 1507,103 L 1507,102 L 1509,100 L 1509,99 L 1512,96 L 1512,95 L 1514,93 L 1514,92 L 1516,90 L 1516,89 L 1520,85 L 1520,84 L 1523,81 L 1523,80 L 1526,77 L 1526,76 L 1530,72 L 1530,71 L 1535,66 L 1535,0 Z" fill="#017A4E" stroke="none" /></svg>