<?xml version="1.0" encoding="UTF-8"?>
<svg width="500" height="400" viewBox="0 0 500 400" fill="none" xmlns="http://www.w3.org/2000/svg">
  <!-- Ghost mascot -->
  <path d="M250 50C305.228 50 350 94.7715 350 150V300C350 300 330 320 300 320C270 320 270 280 250 280C230 280 230 320 200 320C170 320 150 300 150 300V150C150 94.7715 194.772 50 250 50Z" fill="#E6531D"/>
  
  <!-- Eyes -->
  <circle cx="200" cy="150" r="20" fill="#FEF0D1"/>
  <circle cx="300" cy="150" r="20" fill="#FEF0D1"/>
  <circle cx="200" cy="150" r="10" fill="#171717"/>
  <circle cx="300" cy="150" r="10" fill="#171717"/>
  
  <!-- Smile -->
  <path d="M220 200C220 200 230 220 250 220C270 220 280 200 280 200" stroke="#171717" stroke-width="8" stroke-linecap="round"/>
  
  <!-- Books and learning elements -->
  <rect x="100" y="330" width="100" height="20" rx="5" fill="#007142"/>
  <rect x="120" y="310" width="60" height="20" rx="5" fill="#007142"/>
  
  <rect x="300" y="330" width="100" height="20" rx="5" fill="#34307B"/>
  <rect x="320" y="310" width="60" height="20" rx="5" fill="#34307B"/>
  
  <!-- Decorative elements -->
  <circle cx="100" cy="100" r="30" fill="#007142" fill-opacity="0.3"/>
  <circle cx="400" cy="150" r="40" fill="#E6531D" fill-opacity="0.3"/>
  <circle cx="150" cy="350" r="25" fill="#34307B" fill-opacity="0.3"/>
  <circle cx="350" cy="250" r="35" fill="#007142" fill-opacity="0.3"/>
</svg>
